#!OML:ASF F:\VICON\USERDATA\INSTALL\rory3\rory3.ASF
:FULLY-SPECIFIED
:DEGREES
788
root -0.691408 16.1356 -2.55449 171.744 19.2226 -185.701
lowerback 11.274 -1.50202 9.27351
upperback 0.890551 -0.846729 -1.88704
thorax -5.57312 -0.628635 -7.13792
lowerneck -16.1868 1.74912 3.15451
upperneck 38.102 5.3574 -0.613112
head 16.5248 3.7201 0.495405
rclavicle -3.14328e-014 7.15625e-015
rhumerus 37.7415 19.8747 -50.5052
rradius 54.9484
rwrist -66.3021
rhand -4.33089 -0.924864
rfingers 7.12502
rthumb 21.4362 -29.7589
lclavicle -3.14328e-014 7.15625e-015
lhumerus 41.5913 -19.2126 65.0486
lradius 36.5299
lwrist -0.840992
lhand -10.4914 26.077
lfingers 7.12502
lthumb 15.5104 55.4749
rfemur -20.6535 9.35303 26.7346
rtibia 48.547
rfoot -17.9442 -15.3051
rtoes 30.2351
lfemur 99.3266 186.422 228.125
ltibia 33.1849
lfoot -51.793 9.69727
ltoes 40.3121
789
root -0.752141 16.3111 -2.69062 171.224 21.5897 -186.896
lowerback 12.5076 -1.27408 8.74347
upperback 0.759874 -0.511479 -2.24395
thorax -6.33876 -0.496222 -7.28721
lowerneck -16.1223 2.13185 2.88707
upperneck 37.4681 5.64607 -0.220949
head 16.1606 3.79317 0.726946
rclavicle 2.50593e-014 -2.70347e-014
rhumerus 43.1229 17.7407 -48.6122
rradius 55.8689
rwrist -68.5201
rhand -3.452 -1.10997
rfingers 7.12502
rthumb 22.2801 -29.8456
lclavicle 2.50593e-014 -2.70347e-014
lhumerus 45.7124 -17.4042 63.5888
lradius 37.2054
lwrist 1.65842
lhand -7.8446 24.626
lfingers 7.12502
lthumb 18.0584 53.8076
rfemur -18.8172 10.5923 25.5374
rtibia 46.1729
rfoot -16.9827 -14.5993
rtoes 29.5913
lfemur 98.9717 186.328 232.167
ltibia 34.2458
lfoot -53.2078 18.0414
ltoes 35.7154
790
root -0.803892 16.512 -2.83452 170.407 23.8123 -188.574
lowerback 13.7214 -1.0253 7.7291
upperback 0.668561 -0.250313 -2.74866
thorax -7.06476 -0.378429 -7.32024
lowerneck -16.1051 2.44046 2.66614
upperneck 36.8369 5.82652 0.120887
head 15.8167 3.82416 0.90612
rclavicle -1.50952e-014 5.1684e-014
rhumerus 48.5183 13.5212 -52.6339
rradius 55.581
rwrist -65.9245
rhand 0.0193398 -3.59786
rfingers 7.12502
rthumb 25.6089 -31.8959
lclavicle -1.50952e-014 5.1684e-014
lhumerus 49.7045 -15.8789 61.47
lradius 38.4746
lwrist 6.2567
lhand -4.43578 24.3567
lfingers 7.12502
lthumb 21.3354 53.2022
rfemur -16.7954 11.9042 23.9366
rtibia 43.4264
rfoot -15.6257 -14.253
rtoes 29.5222
lfemur 99.4874 181.562 226.255
ltibia 35.5793
lfoot -43.8474 25.7794
ltoes 33.4637
791
root -0.851493 16.7426 -2.98772 169.405 26.152 -190.487
lowerback 14.5828 -0.699429 6.77034
upperback 0.703985 0.0664141 -3.39351
thorax -7.45068 -0.208555 -7.55698
lowerneck -16.4168 2.62517 2.54133
upperneck 36.5122 5.92879 0.22316
head 15.7217 3.81017 0.975496
rclavicle -2.97432e-014 1.59028e-015
rhumerus 53.1972 11.4843 -51.4772
rradius 56.3846
rwrist -68.157
rhand 1.47592 -2.99149
rfingers 7.12502
rthumb 27.0033 -31.0814
lclavicle -2.97432e-014 1.59028e-015
lhumerus 53.6194 -14.3159 59.1071
lradius 39.9689
lwrist 12.5658
lhand -0.412577 25.2262
lfingers 7.12502
lthumb 25.1951 53.5831
rfemur -14.5378 13.1413 22.1681
rtibia 40.1381
rfoot -13.5193 -14.0233
rtoes 29.9592
lfemur 99.8528 178.029 222.35
ltibia 36.9894
lfoot -37.0533 30.0395
ltoes 34.0793
792
root -0.923643 17.162 -3.07693 166.155 26.1815 -200.618
lowerback 13.9096 0.223764 -1.06206
upperback 0.288748 0.0380844 -6.51865
thorax -7.52449 0.103839 -6.4454
lowerneck -16.6891 2.37698 3.22677
upperneck 36.5389 5.27621 0.166789
head 15.8174 3.60767 0.720274
rclavicle 3.27995e-014 7.95139e-016
rhumerus 55.6485 9.35058 -47.1659
rradius 58.3518
rwrist -73.5337
rhand 0.881433 -1.0395
rfingers 7.12502
rthumb 26.4344 -29.2162
lclavicle 3.27995e-014 7.95139e-016
lhumerus 57.7586 -13.5078 57.5875
lradius 40.6594
lwrist 19.2319
lhand 3.08005 26.4696
lfingers 7.12502
lthumb 28.537 54.312
rfemur -13.8675 11.165 10.8373
rtibia 36.3148
rfoot -11.2196 -10.9989
rtoes 28.7593
lfemur 99.2293 181.58 220.352
ltibia 38.2185
lfoot -47.6534 21.9907
ltoes 43.1816
793
root -0.930039 17.3026 -3.27962 166.518 30.4643 -196.584
lowerback 15.9855 0.422183 2.91463
upperback 0.691076 0.919628 -5.49793
thorax -8.12041 0.342967 -7.88633
lowerneck -18.211 2.57883 3.23518
upperneck 36.8077 5.40148 0.10278
head 16.3278 3.57648 0.755063
rclavicle -1.05455e-013 5.24792e-014
rhumerus 59.3267 7.19226 -43.9023
rradius 59.7534
rwrist -77.5237
rhand 1.16486 0.631244
rfingers 7.12502
rthumb 26.7056 -27.5044
lclavicle -1.05455e-013 5.24792e-014
lhumerus 61.4808 -11.0182 56.6289
lradius 40.9182
lwrist 25.6429
lhand 5.7759 27.6956
lfingers 7.12502
lthumb 31.1098 55.0761
rfemur -9.97835 15.2411 16.5673
rtibia 31.9945
rfoot -8.63884 -13.1449
rtoes 29.4056
lfemur 101.757 175.734 220.314
ltibia 38.9337
lfoot -29.3517 35.6484
ltoes 37.2313
794
root -0.978173 17.5487 -3.45582 165.558 33.9748 -196.597
lowerback 17.9045 0.724285 3.84532
upperback 0.252563 1.48601 -5.5775
thorax -9.56882 0.491847 -8.79383
lowerneck -16.9037 2.52202 2.97904
upperneck 36.5988 5.51232 0.0569383
head 15.8989 3.61363 0.757229
rclavicle -8.65956e-014 1.19271e-014
rhumerus 62.3174 5.66892 -43.2878
rradius 60.3128
rwrist -79.4588
rhand 2.27489 1.45329
rfingers 7.12502
rthumb 27.7675 -26.5158
lclavicle -8.65956e-014 1.19271e-014
lhumerus 63.5428 -9.25418 55.6187
lradius 41.7852
lwrist 31.7762
lhand 8.37734 29.0892
lfingers 7.12502
lthumb 33.5857 55.964
rfemur -6.57841 17.9223 17.6011
rtibia 27.1793
rfoot -5.99603 -14.2366
rtoes 31.5041
lfemur 104.718 174.721 222.874
ltibia 39.1469
lfoot -23.8242 38.2536
ltoes 37.8064
